<mxfile host="app.diagrams.net" modified="2020-10-07T17:15:26.379Z" agent="5.0 (Windows)" etag="y3eGk1V55B8wQM79_Ulf" version="13.7.3" type="github" pages="2">
  <diagram id="FKpOxl4j8zAN8j0LntPf" name="BasicDir">
    <mxGraphModel dx="1422" dy="831" grid="1" gridSize="10" guides="1" tooltips="1" connect="1" arrows="1" fold="1" page="1" pageScale="1" pageWidth="850" pageHeight="1100" math="0" shadow="0">
      <root>
        <mxCell id="0" />
        <mxCell id="1" parent="0" />
        <mxCell id="gzsq6Yt03Mv5ZVgsQ6RC-1" value="Data" style="pointerEvents=1;shadow=0;dashed=0;html=1;labelPosition=center;verticalLabelPosition=bottom;verticalAlign=top;outlineConnect=0;align=center;shape=mxgraph.office.concepts.folder;fillColor=#fff2cc;strokeColor=#d6b656;" parent="1" vertex="1">
          <mxGeometry x="70" y="180" width="150" height="120" as="geometry" />
        </mxCell>
        <mxCell id="gzsq6Yt03Mv5ZVgsQ6RC-2" value="PMT_{Year}" style="shape=datastore;whiteSpace=wrap;html=1;" parent="1" vertex="1">
          <mxGeometry x="80" y="640" width="130" height="130" as="geometry" />
        </mxCell>
        <mxCell id="gzsq6Yt03Mv5ZVgsQ6RC-3" value="Data" style="pointerEvents=1;shadow=0;dashed=0;html=1;labelPosition=center;verticalLabelPosition=bottom;verticalAlign=top;outlineConnect=0;align=center;shape=mxgraph.office.concepts.folder;fillColor=#fff2cc;strokeColor=#d6b656;" parent="1" vertex="1">
          <mxGeometry x="70" y="180" width="150" height="120" as="geometry" />
        </mxCell>
        <mxCell id="gzsq6Yt03Mv5ZVgsQ6RC-4" value="Raw" style="pointerEvents=1;shadow=0;dashed=0;html=1;labelPosition=center;verticalLabelPosition=bottom;verticalAlign=top;outlineConnect=0;align=center;shape=mxgraph.office.concepts.folder;fillColor=#fff2cc;strokeColor=#d6b656;" parent="1" vertex="1">
          <mxGeometry x="320" y="260" width="87.5" height="70" as="geometry" />
        </mxCell>
        <mxCell id="gzsq6Yt03Mv5ZVgsQ6RC-6" value="Cleaned" style="pointerEvents=1;shadow=0;dashed=0;html=1;labelPosition=center;verticalLabelPosition=bottom;verticalAlign=top;outlineConnect=0;align=center;shape=mxgraph.office.concepts.folder;fillColor=#fff2cc;strokeColor=#d6b656;" parent="1" vertex="1">
          <mxGeometry x="320" y="490" width="87.5" height="70" as="geometry" />
        </mxCell>
        <mxCell id="gzsq6Yt03Mv5ZVgsQ6RC-7" value="" style="edgeStyle=orthogonalEdgeStyle;endArrow=none;html=1;endFill=0;" parent="1" source="gzsq6Yt03Mv5ZVgsQ6RC-3" target="gzsq6Yt03Mv5ZVgsQ6RC-4" edge="1">
          <mxGeometry width="50" height="50" relative="1" as="geometry">
            <mxPoint x="300" y="490" as="sourcePoint" />
            <mxPoint x="410" y="470" as="targetPoint" />
          </mxGeometry>
        </mxCell>
        <mxCell id="gzsq6Yt03Mv5ZVgsQ6RC-8" value="" style="edgeStyle=orthogonalEdgeStyle;endArrow=none;html=1;rounded=1;endFill=0;" parent="1" source="gzsq6Yt03Mv5ZVgsQ6RC-3" target="gzsq6Yt03Mv5ZVgsQ6RC-6" edge="1">
          <mxGeometry width="50" height="50" relative="1" as="geometry">
            <mxPoint x="220" y="240" as="sourcePoint" />
            <mxPoint x="320" y="295" as="targetPoint" />
            <Array as="points">
              <mxPoint x="270" y="240" />
              <mxPoint x="270" y="535" />
            </Array>
          </mxGeometry>
        </mxCell>
        <mxCell id="gzsq6Yt03Mv5ZVgsQ6RC-9" value="Scripts" style="pointerEvents=1;shadow=0;dashed=0;html=1;labelPosition=center;verticalLabelPosition=bottom;verticalAlign=top;outlineConnect=0;align=center;shape=mxgraph.office.concepts.folder;fillColor=#fff2cc;strokeColor=#d6b656;" parent="1" vertex="1">
          <mxGeometry x="630" y="170" width="150" height="120" as="geometry" />
        </mxCell>
        <mxCell id="gzsq6Yt03Mv5ZVgsQ6RC-10" value="" style="edgeStyle=orthogonalEdgeStyle;endArrow=classic;html=1;dashed=1;" parent="1" source="gzsq6Yt03Mv5ZVgsQ6RC-13" target="gzsq6Yt03Mv5ZVgsQ6RC-4" edge="1">
          <mxGeometry width="50" height="50" relative="1" as="geometry">
            <mxPoint x="220" y="240" as="sourcePoint" />
            <mxPoint x="490" y="240" as="targetPoint" />
          </mxGeometry>
        </mxCell>
        <mxCell id="gzsq6Yt03Mv5ZVgsQ6RC-15" value="" style="group" parent="1" vertex="1" connectable="0">
          <mxGeometry x="510" y="240" width="80" height="75" as="geometry" />
        </mxCell>
        <mxCell id="gzsq6Yt03Mv5ZVgsQ6RC-13" value="" style="shape=mxgraph.bpmn.script_task;html=1;outlineConnect=0;" parent="gzsq6Yt03Mv5ZVgsQ6RC-15" vertex="1">
          <mxGeometry x="20" width="40" height="40" as="geometry" />
        </mxCell>
        <mxCell id="gzsq6Yt03Mv5ZVgsQ6RC-14" value="Downloaders" style="text;html=1;strokeColor=none;fillColor=none;align=center;verticalAlign=middle;whiteSpace=wrap;rounded=0;" parent="gzsq6Yt03Mv5ZVgsQ6RC-15" vertex="1">
          <mxGeometry y="55" width="80" height="20" as="geometry" />
        </mxCell>
        <mxCell id="gzsq6Yt03Mv5ZVgsQ6RC-16" value="Reference" style="pointerEvents=1;shadow=0;dashed=0;html=1;labelPosition=center;verticalLabelPosition=bottom;verticalAlign=top;outlineConnect=0;align=center;shape=mxgraph.office.concepts.folder;fillColor=#fff2cc;strokeColor=#d6b656;" parent="1" vertex="1">
          <mxGeometry x="320" y="375" width="87.5" height="70" as="geometry" />
        </mxCell>
        <mxCell id="gzsq6Yt03Mv5ZVgsQ6RC-17" value="" style="edgeStyle=orthogonalEdgeStyle;endArrow=none;html=1;rounded=1;endFill=0;" parent="1" source="gzsq6Yt03Mv5ZVgsQ6RC-3" target="gzsq6Yt03Mv5ZVgsQ6RC-16" edge="1">
          <mxGeometry width="50" height="50" relative="1" as="geometry">
            <mxPoint x="220" y="240" as="sourcePoint" />
            <mxPoint x="320" y="415" as="targetPoint" />
            <Array as="points">
              <mxPoint x="270" y="240" />
              <mxPoint x="270" y="420" />
            </Array>
          </mxGeometry>
        </mxCell>
        <mxCell id="gzsq6Yt03Mv5ZVgsQ6RC-18" value="" style="group" parent="1" vertex="1" connectable="0">
          <mxGeometry x="510" y="410" width="80" height="75" as="geometry" />
        </mxCell>
        <mxCell id="gzsq6Yt03Mv5ZVgsQ6RC-19" value="" style="shape=mxgraph.bpmn.script_task;html=1;outlineConnect=0;" parent="gzsq6Yt03Mv5ZVgsQ6RC-18" vertex="1">
          <mxGeometry x="20" width="40" height="40" as="geometry" />
        </mxCell>
        <mxCell id="gzsq6Yt03Mv5ZVgsQ6RC-20" value="Data prep" style="text;html=1;strokeColor=none;fillColor=none;align=center;verticalAlign=middle;whiteSpace=wrap;rounded=0;" parent="gzsq6Yt03Mv5ZVgsQ6RC-18" vertex="1">
          <mxGeometry y="55" width="80" height="20" as="geometry" />
        </mxCell>
        <mxCell id="gzsq6Yt03Mv5ZVgsQ6RC-21" value="" style="edgeStyle=orthogonalEdgeStyle;endArrow=classic;html=1;dashed=1;" parent="1" source="gzsq6Yt03Mv5ZVgsQ6RC-19" target="gzsq6Yt03Mv5ZVgsQ6RC-6" edge="1">
          <mxGeometry width="50" height="50" relative="1" as="geometry">
            <mxPoint x="530" y="260" as="sourcePoint" />
            <mxPoint x="490" y="520" as="targetPoint" />
            <Array as="points">
              <mxPoint x="550" y="525" />
            </Array>
          </mxGeometry>
        </mxCell>
        <mxCell id="gzsq6Yt03Mv5ZVgsQ6RC-22" value="" style="ellipse;shape=cloud;whiteSpace=wrap;html=1;" parent="1" vertex="1">
          <mxGeometry x="380" y="30" width="120" height="80" as="geometry" />
        </mxCell>
        <mxCell id="gzsq6Yt03Mv5ZVgsQ6RC-23" value="" style="edgeStyle=orthogonalEdgeStyle;endArrow=block;html=1;dashed=1;strokeColor=#0000FF;strokeWidth=2;endFill=0;" parent="1" source="gzsq6Yt03Mv5ZVgsQ6RC-22" target="gzsq6Yt03Mv5ZVgsQ6RC-13" edge="1">
          <mxGeometry width="50" height="50" relative="1" as="geometry">
            <mxPoint x="500" y="140" as="sourcePoint" />
            <mxPoint x="407.5" y="295" as="targetPoint" />
          </mxGeometry>
        </mxCell>
        <mxCell id="gzsq6Yt03Mv5ZVgsQ6RC-24" value="User" style="outlineConnect=0;fontColor=#232F3E;gradientColor=none;strokeColor=#232F3E;fillColor=#ffffff;dashed=0;verticalLabelPosition=bottom;verticalAlign=top;align=center;html=1;fontSize=12;fontStyle=0;aspect=fixed;shape=mxgraph.aws4.resourceIcon;resIcon=mxgraph.aws4.user;" parent="1" vertex="1">
          <mxGeometry x="310" y="130" width="60" height="60" as="geometry" />
        </mxCell>
        <mxCell id="gzsq6Yt03Mv5ZVgsQ6RC-25" value="" style="edgeStyle=orthogonalEdgeStyle;endArrow=classic;html=1;dashed=1;" parent="1" source="gzsq6Yt03Mv5ZVgsQ6RC-22" target="gzsq6Yt03Mv5ZVgsQ6RC-24" edge="1">
          <mxGeometry width="50" height="50" relative="1" as="geometry">
            <mxPoint x="380" y="140" as="sourcePoint" />
            <mxPoint x="550" y="240" as="targetPoint" />
          </mxGeometry>
        </mxCell>
        <mxCell id="gzsq6Yt03Mv5ZVgsQ6RC-26" value="" style="edgeStyle=orthogonalEdgeStyle;endArrow=classic;html=1;dashed=1;" parent="1" source="gzsq6Yt03Mv5ZVgsQ6RC-24" target="gzsq6Yt03Mv5ZVgsQ6RC-4" edge="1">
          <mxGeometry width="50" height="50" relative="1" as="geometry">
            <mxPoint x="380" y="70" as="sourcePoint" />
            <mxPoint x="340" y="130" as="targetPoint" />
            <Array as="points">
              <mxPoint x="290" y="160" />
              <mxPoint x="290" y="225" />
              <mxPoint x="364" y="225" />
            </Array>
          </mxGeometry>
        </mxCell>
        <mxCell id="gzsq6Yt03Mv5ZVgsQ6RC-27" value="" style="edgeStyle=orthogonalEdgeStyle;endArrow=none;html=1;endFill=0;" parent="1" source="gzsq6Yt03Mv5ZVgsQ6RC-9" target="gzsq6Yt03Mv5ZVgsQ6RC-13" edge="1">
          <mxGeometry width="50" height="50" relative="1" as="geometry">
            <mxPoint x="220" y="240" as="sourcePoint" />
            <mxPoint x="320" y="295" as="targetPoint" />
          </mxGeometry>
        </mxCell>
        <mxCell id="gzsq6Yt03Mv5ZVgsQ6RC-28" value="" style="edgeStyle=orthogonalEdgeStyle;endArrow=none;html=1;endFill=0;" parent="1" source="gzsq6Yt03Mv5ZVgsQ6RC-9" target="gzsq6Yt03Mv5ZVgsQ6RC-19" edge="1">
          <mxGeometry width="50" height="50" relative="1" as="geometry">
            <mxPoint x="610" y="230" as="sourcePoint" />
            <mxPoint x="570" y="260" as="targetPoint" />
            <Array as="points">
              <mxPoint x="600" y="230" />
              <mxPoint x="600" y="370" />
            </Array>
          </mxGeometry>
        </mxCell>
        <mxCell id="gzsq6Yt03Mv5ZVgsQ6RC-29" value="" style="edgeStyle=orthogonalEdgeStyle;endArrow=classic;html=1;dashed=1;" parent="1" source="gzsq6Yt03Mv5ZVgsQ6RC-24" target="gzsq6Yt03Mv5ZVgsQ6RC-16" edge="1">
          <mxGeometry width="50" height="50" relative="1" as="geometry">
            <mxPoint x="310" y="160" as="sourcePoint" />
            <mxPoint x="364" y="260" as="targetPoint" />
            <Array as="points">
              <mxPoint x="290" y="160" />
              <mxPoint x="290" y="410" />
            </Array>
          </mxGeometry>
        </mxCell>
        <mxCell id="gzsq6Yt03Mv5ZVgsQ6RC-30" value="" style="edgeStyle=orthogonalEdgeStyle;endArrow=block;html=1;dashed=1;strokeColor=#0000FF;strokeWidth=2;endFill=0;" parent="1" source="gzsq6Yt03Mv5ZVgsQ6RC-16" target="gzsq6Yt03Mv5ZVgsQ6RC-19" edge="1">
          <mxGeometry width="50" height="50" relative="1" as="geometry">
            <mxPoint x="550" y="390" as="sourcePoint" />
            <mxPoint x="490" y="460" as="targetPoint" />
            <Array as="points">
              <mxPoint x="500" y="420" />
              <mxPoint x="500" y="420" />
            </Array>
          </mxGeometry>
        </mxCell>
        <mxCell id="gzsq6Yt03Mv5ZVgsQ6RC-32" value="" style="edgeStyle=orthogonalEdgeStyle;endArrow=block;html=1;dashed=1;strokeColor=#0000FF;strokeWidth=2;endFill=0;" parent="1" source="gzsq6Yt03Mv5ZVgsQ6RC-4" target="gzsq6Yt03Mv5ZVgsQ6RC-19" edge="1">
          <mxGeometry width="50" height="50" relative="1" as="geometry">
            <mxPoint x="407.5" y="405" as="sourcePoint" />
            <mxPoint x="530" y="370" as="targetPoint" />
            <Array as="points">
              <mxPoint x="470" y="310" />
              <mxPoint x="470" y="420" />
            </Array>
          </mxGeometry>
        </mxCell>
        <mxCell id="gzsq6Yt03Mv5ZVgsQ6RC-33" value="" style="group" parent="1" vertex="1" connectable="0">
          <mxGeometry x="510" y="580" width="80" height="75" as="geometry" />
        </mxCell>
        <mxCell id="gzsq6Yt03Mv5ZVgsQ6RC-34" value="" style="shape=mxgraph.bpmn.script_task;html=1;outlineConnect=0;" parent="gzsq6Yt03Mv5ZVgsQ6RC-33" vertex="1">
          <mxGeometry x="20" width="40" height="40" as="geometry" />
        </mxCell>
        <mxCell id="gzsq6Yt03Mv5ZVgsQ6RC-35" value="Analysis" style="text;html=1;strokeColor=none;fillColor=none;align=center;verticalAlign=middle;whiteSpace=wrap;rounded=0;" parent="gzsq6Yt03Mv5ZVgsQ6RC-33" vertex="1">
          <mxGeometry y="55" width="80" height="20" as="geometry" />
        </mxCell>
        <mxCell id="gzsq6Yt03Mv5ZVgsQ6RC-36" value="" style="edgeStyle=orthogonalEdgeStyle;endArrow=block;html=1;dashed=1;strokeColor=#0000FF;strokeWidth=2;endFill=0;" parent="1" source="gzsq6Yt03Mv5ZVgsQ6RC-6" target="gzsq6Yt03Mv5ZVgsQ6RC-34" edge="1">
          <mxGeometry width="50" height="50" relative="1" as="geometry">
            <mxPoint x="500" y="70" as="sourcePoint" />
            <mxPoint x="550" y="240" as="targetPoint" />
            <Array as="points">
              <mxPoint x="550" y="540" />
            </Array>
          </mxGeometry>
        </mxCell>
        <mxCell id="gzsq6Yt03Mv5ZVgsQ6RC-37" value="" style="edgeStyle=orthogonalEdgeStyle;endArrow=classic;html=1;dashed=1;" parent="1" source="gzsq6Yt03Mv5ZVgsQ6RC-34" target="gzsq6Yt03Mv5ZVgsQ6RC-2" edge="1">
          <mxGeometry width="50" height="50" relative="1" as="geometry">
            <mxPoint x="550" y="390" as="sourcePoint" />
            <mxPoint x="407.5" y="525" as="targetPoint" />
            <Array as="points">
              <mxPoint x="145" y="600" />
            </Array>
          </mxGeometry>
        </mxCell>
        <mxCell id="gzsq6Yt03Mv5ZVgsQ6RC-39" value="" style="edgeStyle=orthogonalEdgeStyle;endArrow=none;html=1;endFill=0;" parent="1" target="gzsq6Yt03Mv5ZVgsQ6RC-34" edge="1">
          <mxGeometry width="50" height="50" relative="1" as="geometry">
            <mxPoint x="630" y="230" as="sourcePoint" />
            <mxPoint x="550" y="410" as="targetPoint" />
            <Array as="points">
              <mxPoint x="600" y="230" />
              <mxPoint x="600" y="600" />
            </Array>
          </mxGeometry>
        </mxCell>
        <mxCell id="DnI2SUh-H0ago46fSjTC-1" value="&lt;div&gt;Script naming convention:&lt;/div&gt;&lt;div&gt;&lt;i&gt;{prefix}_{desc}_{detail}.{ext}&lt;/i&gt;&lt;/div&gt;&lt;div&gt;&lt;br&gt;&lt;/div&gt;&lt;div&gt;&lt;u&gt;prefix: &lt;/u&gt;&lt;br&gt;&lt;/div&gt;&lt;div&gt;- &lt;b&gt;dl&lt;/b&gt;=download&lt;/div&gt;&lt;div&gt;- &lt;b&gt;prep&lt;/b&gt;=prep/process&lt;/div&gt;&lt;div&gt;- &lt;b&gt;analyze&lt;/b&gt;=analysis&lt;/div&gt;&lt;div&gt;- &lt;b&gt;sum&lt;/b&gt;=summarization&lt;/div&gt;&lt;div&gt;&lt;br&gt;&lt;/div&gt;&lt;div&gt;&lt;u&gt;desc&lt;/u&gt;: &lt;br&gt;&lt;/div&gt;&lt;div&gt;one-to-three words indicating the focus of the script (BuildingPermits, e.g.)&lt;/div&gt;&lt;div&gt;&lt;br&gt;&lt;/div&gt;&lt;div&gt;&lt;u&gt;detail:&lt;/u&gt;&lt;/div&gt;&lt;div&gt;one-to-three words differentiating similar scripts if needed (CityOfMiami, MiamiBeach, e.g.)&lt;/div&gt;&lt;div&gt;&lt;br&gt;&lt;/div&gt;&lt;div&gt;&lt;u&gt;ext&lt;/u&gt;&lt;/div&gt;&lt;div&gt;.R or .py&lt;/div&gt;" style="text;html=1;align=left;verticalAlign=middle;whiteSpace=wrap;rounded=0;fillColor=#dae8fc;strokeColor=#0000FF;fontColor=#000099;" parent="1" vertex="1">
          <mxGeometry x="630" y="340" width="180" height="350" as="geometry" />
        </mxCell>
        <mxCell id="w4877RSFGSn_-vhsM9JB-1" value="Basic_features" style="shape=datastore;whiteSpace=wrap;html=1;" parent="1" vertex="1">
          <mxGeometry x="80" y="810" width="130" height="130" as="geometry" />
        </mxCell>
        <mxCell id="w4877RSFGSn_-vhsM9JB-2" value="" style="group" parent="1" vertex="1" connectable="0">
          <mxGeometry x="510" y="690" width="80" height="75" as="geometry" />
        </mxCell>
        <mxCell id="w4877RSFGSn_-vhsM9JB-3" value="" style="shape=mxgraph.bpmn.script_task;html=1;outlineConnect=0;" parent="w4877RSFGSn_-vhsM9JB-2" vertex="1">
          <mxGeometry x="20" width="40" height="40" as="geometry" />
        </mxCell>
        <mxCell id="w4877RSFGSn_-vhsM9JB-4" value="Summarization" style="text;html=1;strokeColor=none;fillColor=none;align=center;verticalAlign=middle;whiteSpace=wrap;rounded=0;" parent="w4877RSFGSn_-vhsM9JB-2" vertex="1">
          <mxGeometry y="55" width="80" height="20" as="geometry" />
        </mxCell>
        <mxCell id="w4877RSFGSn_-vhsM9JB-5" value="" style="edgeStyle=orthogonalEdgeStyle;endArrow=block;html=1;dashed=1;strokeColor=#0000FF;strokeWidth=2;endFill=0;" parent="1" source="gzsq6Yt03Mv5ZVgsQ6RC-2" target="w4877RSFGSn_-vhsM9JB-3" edge="1">
          <mxGeometry width="50" height="50" relative="1" as="geometry">
            <mxPoint x="407.5" y="540" as="sourcePoint" />
            <mxPoint x="550" y="580" as="targetPoint" />
            <Array as="points">
              <mxPoint x="370" y="700" />
              <mxPoint x="370" y="700" />
            </Array>
          </mxGeometry>
        </mxCell>
        <mxCell id="w4877RSFGSn_-vhsM9JB-7" value="" style="edgeStyle=orthogonalEdgeStyle;endArrow=block;html=1;dashed=1;strokeColor=#0000FF;strokeWidth=2;endFill=0;" parent="1" source="w4877RSFGSn_-vhsM9JB-1" target="w4877RSFGSn_-vhsM9JB-3" edge="1">
          <mxGeometry width="50" height="50" relative="1" as="geometry">
            <mxPoint x="-290" y="970" as="sourcePoint" />
            <mxPoint x="-50" y="875" as="targetPoint" />
            <Array as="points">
              <mxPoint x="340" y="875" />
              <mxPoint x="340" y="720" />
            </Array>
          </mxGeometry>
        </mxCell>
        <mxCell id="w4877RSFGSn_-vhsM9JB-8" value="" style="edgeStyle=orthogonalEdgeStyle;endArrow=classic;html=1;dashed=1;" parent="1" source="w4877RSFGSn_-vhsM9JB-3" target="gzsq6Yt03Mv5ZVgsQ6RC-2" edge="1">
          <mxGeometry width="50" height="50" relative="1" as="geometry">
            <mxPoint x="490" y="750" as="sourcePoint" />
            <mxPoint x="145" y="640" as="targetPoint" />
            <Array as="points">
              <mxPoint x="330" y="710" />
              <mxPoint x="330" y="710" />
            </Array>
          </mxGeometry>
        </mxCell>
        <mxCell id="w4877RSFGSn_-vhsM9JB-10" value="" style="edgeStyle=orthogonalEdgeStyle;endArrow=none;html=1;endFill=0;" parent="1" target="w4877RSFGSn_-vhsM9JB-3" edge="1">
          <mxGeometry width="50" height="50" relative="1" as="geometry">
            <mxPoint x="630" y="230" as="sourcePoint" />
            <mxPoint x="570" y="600" as="targetPoint" />
            <Array as="points">
              <mxPoint x="600" y="230" />
              <mxPoint x="600" y="710" />
            </Array>
          </mxGeometry>
        </mxCell>
        <mxCell id="S8PTDXg0hTSVDCqvhR2H-1" style="edgeStyle=orthogonalEdgeStyle;rounded=1;orthogonalLoop=1;jettySize=auto;html=1;exitX=0.5;exitY=1;exitDx=0;exitDy=0;dashed=1;endArrow=block;endFill=0;strokeColor=#0000FF;strokeWidth=2;fontColor=#000099;" parent="1" source="DnI2SUh-H0ago46fSjTC-1" target="DnI2SUh-H0ago46fSjTC-1" edge="1">
          <mxGeometry relative="1" as="geometry" />
        </mxCell>
        <mxCell id="AuzIK_mmCAWobpE1Owzl-1" value="" style="edgeStyle=orthogonalEdgeStyle;endArrow=block;html=1;dashed=1;strokeColor=#0000FF;strokeWidth=2;endFill=0;" parent="1" source="gzsq6Yt03Mv5ZVgsQ6RC-6" target="gzsq6Yt03Mv5ZVgsQ6RC-19" edge="1">
          <mxGeometry width="50" height="50" relative="1" as="geometry">
            <mxPoint x="407.5" y="540" as="sourcePoint" />
            <mxPoint x="550" y="580" as="targetPoint" />
            <Array as="points">
              <mxPoint x="470" y="510" />
              <mxPoint x="470" y="420" />
            </Array>
          </mxGeometry>
        </mxCell>
      </root>
    </mxGraphModel>
  </diagram>
  <diagram id="5b6NjDHPqx221teooDvQ" name="GDBContents">
    <mxGraphModel dx="1422" dy="831" grid="1" gridSize="10" guides="1" tooltips="1" connect="1" arrows="1" fold="1" page="1" pageScale="1" pageWidth="850" pageHeight="1100" math="0" shadow="0">
      <root>
        <mxCell id="yJTX_5fowlN7aJKwZSzn-0" />
        <mxCell id="yJTX_5fowlN7aJKwZSzn-1" parent="yJTX_5fowlN7aJKwZSzn-0" />
        <mxCell id="elD038r_92A3GgNFvKKa-0" value="&lt;b&gt;PMT_{year}&lt;/b&gt;" style="shape=datastore;whiteSpace=wrap;html=1;" parent="yJTX_5fowlN7aJKwZSzn-1" vertex="1">
          <mxGeometry x="410" y="20" width="320" height="230" as="geometry" />
        </mxCell>
        <mxCell id="elD038r_92A3GgNFvKKa-2" value="&lt;div&gt;&lt;b&gt;Parcels:&lt;/b&gt;&lt;/div&gt;&lt;div&gt;- Socioeconomic_demographic&lt;br&gt;&lt;/div&gt;&lt;div&gt;- Land_use_and_value&lt;br&gt;&lt;/div&gt;&lt;div&gt;- Fiscal_impact&lt;/div&gt;&lt;div&gt;- Development_opportunity&lt;/div&gt;&lt;div&gt;- Access_and_travel_time&lt;/div&gt;&lt;div&gt;- Mode_share_and_trip_length&lt;/div&gt;&lt;div&gt;- Impervious_area&lt;br&gt;&lt;/div&gt;&lt;div&gt;- Energy_consumption&lt;/div&gt;" style="text;html=1;align=left;verticalAlign=middle;whiteSpace=wrap;rounded=0;strokeColor=#000000;" parent="yJTX_5fowlN7aJKwZSzn-1" vertex="1">
          <mxGeometry x="312" y="504" width="250" height="146" as="geometry" />
        </mxCell>
        <mxCell id="elD038r_92A3GgNFvKKa-16" value="&lt;div&gt;&lt;b&gt;Basic_Features&lt;/b&gt;&lt;/div&gt;&lt;div&gt;&lt;br&gt;&lt;div&gt;- Miami_Dade_County&lt;/div&gt;&lt;div&gt;- SMART_Plan_Stations&lt;/div&gt;&lt;div&gt;- SMART_Plan_Alignments&lt;/div&gt;&lt;div&gt;- &lt;i&gt;Corridor Buffers&lt;/i&gt;&lt;/div&gt;&lt;div&gt;- &lt;i&gt;Station Buffers&lt;/i&gt;&lt;/div&gt;- Urban_Growth_Boundary&lt;/div&gt;" style="shape=datastore;whiteSpace=wrap;html=1;" parent="yJTX_5fowlN7aJKwZSzn-1" vertex="1">
          <mxGeometry x="40" y="20" width="240" height="230" as="geometry" />
        </mxCell>
        <mxCell id="elD038r_92A3GgNFvKKa-17" value="&lt;div&gt;&lt;b&gt;Network:&lt;/b&gt;&lt;/div&gt;&lt;div&gt;- OSMNX_Walk (LTS)&lt;br&gt;&lt;/div&gt;&lt;div&gt;- OSMNX_Walk_ND*&lt;/div&gt;&lt;div&gt;- OSMNX_Walk_Junctions&lt;br&gt;&lt;/div&gt;&lt;div&gt;- OSMNX_Bike (LTS)&lt;br&gt;&lt;/div&gt;&lt;div&gt;- OSMNX_Bike_ND*&lt;/div&gt;&lt;div&gt;- OSMNX_Bike_Junctions&lt;/div&gt;&lt;div&gt;- SERPM_Base_Hwy_Unloaded...(centrality)&lt;/div&gt;&lt;div&gt;- SERPM_EC_Hwy_Unloaded...(centrality)&lt;/div&gt;&lt;div&gt;- SERPM_LRTP_Hwy_Unloaded...(centrality)&lt;/div&gt;" style="text;html=1;align=left;verticalAlign=middle;whiteSpace=wrap;rounded=0;strokeColor=#000000;" parent="yJTX_5fowlN7aJKwZSzn-1" vertex="1">
          <mxGeometry x="312" y="344" width="250" height="160" as="geometry" />
        </mxCell>
        <mxCell id="elD038r_92A3GgNFvKKa-18" value="&lt;div&gt;&lt;b&gt;Transport:&lt;/b&gt;&lt;/div&gt;&lt;div&gt;- Transit_Boadings_alightings&lt;/div&gt;&lt;div&gt;- CitiBike_utilization&lt;/div&gt;&lt;div&gt;- Parking_spaces&lt;/div&gt;&lt;div&gt;- TAZ_regional_access_productivity&lt;/div&gt;" style="text;html=1;align=left;verticalAlign=middle;whiteSpace=wrap;rounded=0;strokeColor=#000000;" parent="yJTX_5fowlN7aJKwZSzn-1" vertex="1">
          <mxGeometry x="312" y="710" width="250" height="94" as="geometry" />
        </mxCell>
        <mxCell id="elD038r_92A3GgNFvKKa-19" value="&lt;div&gt;&lt;b&gt;SafetySecurity&lt;/b&gt;&lt;/div&gt;&lt;div&gt;- Violent_crime_incidents&lt;/div&gt;&lt;div&gt;- Nonmotorized_crashes&lt;br&gt;&lt;/div&gt;" style="text;html=1;align=left;verticalAlign=middle;whiteSpace=wrap;rounded=0;strokeColor=#000000;" parent="yJTX_5fowlN7aJKwZSzn-1" vertex="1">
          <mxGeometry x="312" y="650" width="250" height="60" as="geometry" />
        </mxCell>
        <mxCell id="elD038r_92A3GgNFvKKa-20" value="&lt;div&gt;&lt;i&gt;Tables:&lt;/i&gt;&lt;/div&gt;&lt;div&gt;&lt;i&gt;- every summary variable this year&lt;br&gt;&lt;/i&gt;&lt;/div&gt;&lt;div&gt;&lt;i&gt;- every summary variable previous 5 years&lt;/i&gt;&lt;/div&gt;&lt;div&gt;&lt;i&gt;- every summary variable modeled near term&lt;/i&gt;&lt;/div&gt;&lt;div&gt;&lt;i&gt;- every summary variable modeled long term&lt;br&gt;&lt;/i&gt;&lt;/div&gt;&lt;div&gt;&lt;i&gt;- region, corridor, station_area&lt;br&gt;&lt;/i&gt;&lt;/div&gt;" style="text;html=1;align=left;verticalAlign=middle;whiteSpace=wrap;rounded=0;strokeColor=#000000;fillColor=#EBEBEB;" parent="yJTX_5fowlN7aJKwZSzn-1" vertex="1">
          <mxGeometry x="572" y="284" width="260" height="130" as="geometry" />
        </mxCell>
        <mxCell id="elD038r_92A3GgNFvKKa-21" value="&lt;div&gt;&lt;b&gt;Buildings&lt;/b&gt;&lt;/div&gt;&lt;div&gt;- Building_footprints&lt;/div&gt;&lt;div&gt;- Building_permits&lt;br&gt;&lt;/div&gt;" style="text;html=1;align=left;verticalAlign=middle;whiteSpace=wrap;rounded=0;strokeColor=#000000;" parent="yJTX_5fowlN7aJKwZSzn-1" vertex="1">
          <mxGeometry x="312" y="284" width="250" height="60" as="geometry" />
        </mxCell>
        <mxCell id="2LsYvtmTQZgOFnxk3ndg-0" value="" style="endArrow=classic;html=1;strokeWidth=1;fontColor=#000099;edgeStyle=orthogonalEdgeStyle;" parent="yJTX_5fowlN7aJKwZSzn-1" source="elD038r_92A3GgNFvKKa-0" target="elD038r_92A3GgNFvKKa-21" edge="1">
          <mxGeometry width="50" height="50" relative="1" as="geometry">
            <mxPoint x="400" y="450" as="sourcePoint" />
            <mxPoint x="450" y="400" as="targetPoint" />
          </mxGeometry>
        </mxCell>
        <mxCell id="2LsYvtmTQZgOFnxk3ndg-1" value="" style="endArrow=classic;html=1;strokeWidth=1;fontColor=#000099;edgeStyle=orthogonalEdgeStyle;" parent="yJTX_5fowlN7aJKwZSzn-1" source="elD038r_92A3GgNFvKKa-0" target="elD038r_92A3GgNFvKKa-20" edge="1">
          <mxGeometry width="50" height="50" relative="1" as="geometry">
            <mxPoint x="570" y="250" as="sourcePoint" />
            <mxPoint x="437" y="280" as="targetPoint" />
            <Array as="points" />
          </mxGeometry>
        </mxCell>
        <mxCell id="ixPHajmr6o0fU8Bz8tXy-0" value="&lt;div&gt;&lt;font color=&quot;#006600&quot;&gt;&lt;i&gt;Basic features are updated on an as-needed basis, and &quot;summarization&quot; scripts always target these features to generate summary tables. &lt;br&gt;&lt;/i&gt;&lt;/font&gt;&lt;/div&gt;&lt;div&gt;&lt;font color=&quot;#006600&quot;&gt;&lt;i&gt;&lt;br&gt;&lt;/i&gt;&lt;/font&gt;&lt;/div&gt;&lt;div&gt;&lt;font color=&quot;#006600&quot;&gt;&lt;i&gt;In this way, the PMT will always report on trends in the corridors and station areas defined by the latest preferred alignments rather than showing information for outdated alignments. &lt;br&gt;&lt;/i&gt;&lt;/font&gt;&lt;/div&gt;" style="text;html=1;align=left;verticalAlign=middle;whiteSpace=wrap;rounded=0;strokeColor=#82b366;fillColor=#d5e8d4;" parent="yJTX_5fowlN7aJKwZSzn-1" vertex="1">
          <mxGeometry x="30" y="283" width="260" height="170" as="geometry" />
        </mxCell>
      </root>
    </mxGraphModel>
  </diagram>
</mxfile>
